<svg xmlns="http://www.w3.org/2000/svg" version="1.1" xmlns:xlink="http://www.w3.org/1999/xlink" xmlns:svgjs="http://svgjs.dev/svgjs" width="2000" height="1500" viewBox="0 0 2000 1500"><rect width="2000" height="1500" fill="#131313"></rect><g transform="matrix(0.4982561036372696,0,0,0.4982561036372696,501.7438963627305,248.22133654826303)"><svg viewBox="0 0 280 281" data-background-color="#131313" preserveAspectRatio="xMidYMid meet" height="2007" width="2000" xmlns="http://www.w3.org/2000/svg" xmlns:xlink="http://www.w3.org/1999/xlink"><g id="tight-bounds" transform="matrix(1,0,0,1,0,0.5001955700618623)"><svg viewBox="0 0 280 280" height="280" width="280"><g><svg viewBox="0 0 280 280" height="280" width="280"><g><svg viewBox="0 0 280 280" height="280" width="280"><g id="textblocktransform"><svg viewBox="0 0 280 280" height="280" width="280" id="textblock"><g><svg viewBox="0 0 280 280" height="280" width="280"><g transform="matrix(1,0,0,1,57.50420886156945,57.50420886156945)"><svg viewBox="0 0 164.9915822768611 164.9915822768611" height="164.9915822768611" width="164.9915822768611"><g id="icon-0"><circle r="82" cx="82.49579113843055" cy="82.49579113843055" fill="#eeff5f" data-fill-palette-color="accent"></circle><svg xmlns="http://www.w3.org/2000/svg" xmlns:xlink="http://www.w3.org/1999/xlink" version="1.1" x="24.74873734152917" y="24.748737341529164" viewBox="0.002 0.0009240591769805653 99.997 99.99907594082302" enable-background="new 0 0 100 100" xml:space="preserve" height="115.49410759380275" width="115.49410759380275" class="icon-jxe-0" data-fill-palette-color="quaternary" id="jxe-0"><g fill="#131313" data-fill-palette-color="quaternary"><g fill="#131313" data-fill-palette-color="quaternary"><path d="M41.276 99.242L42.82 90.493A41.3 41.3 0 0 0 49.96 91.113 41 41 0 0 0 54.985 90.812L56.055 99.637A54 54 0 0 1 52.924 99.917C51.929 99.975 50.94 100 49.96 100 47.007 100 44.102 99.741 41.276 99.242M56.971 90.523A41 41 0 0 0 66.173 87.815L69.668 95.982A49.6 49.6 0 0 1 58.468 99.283zM27.876 94.849L31.816 86.882A40.8 40.8 0 0 0 40.856 90.096L38.884 98.762A49.8 49.8 0 0 1 27.876 94.849M67.989 86.98A41 41 0 0 0 76.065 81.802V81.8L81.703 88.668A49.7 49.7 0 0 1 71.881 94.972zM16.251 86.889L22.247 80.333A41 41 0 0 0 30.039 85.946V85.95L25.715 93.715A50.3 50.3 0 0 1 16.251 86.889M66.17 87.814H66.175L66.173 87.815zM77.581 80.493A41.5 41.5 0 0 0 83.904 73.263L91.228 78.295A50.3 50.3 0 0 1 83.548 87.078zM7.294 76.016L14.878 71.389A41.4 41.4 0 0 0 20.801 78.943L14.492 85.202A50.3 50.3 0 0 1 7.294 76.016M85.001 71.579A41 41 0 0 0 89.059 62.883L97.497 65.667A50 50 0 0 1 92.559 76.252zM1.731 63.065L10.311 60.752A40.7 40.7 0 0 0 13.88 69.653V69.657L6.076 73.907A49.6 49.6 0 0 1 1.731 63.065M89.64 60.961A41 41 0 0 0 91.095 51.474L99.975 51.779A49.8 49.8 0 0 1 98.204 63.329zM0.088 52.928A53 53 0 0 1 0.002 49.96C0.002 49.67 0.004 49.378 0.008 49.088L8.894 49.241C8.888 49.481 8.888 49.722 8.888 49.96 8.888 50.769 8.912 51.582 8.96 52.406 9.086 54.596 9.386 56.732 9.836 58.806L1.153 60.699A51 51 0 0 1 0.088 52.928M91.046 47.598A41.3 41.3 0 0 0 89.875 39.941L98.493 37.776C99.247 40.776 99.73 43.884 99.916 47.08 99.963 47.84 99.99 48.593 99.999 49.346L91.112 49.467A42 42 0 0 0 91.046 47.598M0.11 46.657A49.8 49.8 0 0 1 2.241 35.167L10.728 37.803A41 41 0 0 0 8.975 47.24zM89.875 39.939V39.941zM85.489 29.226L93.153 24.728A49.7 49.7 0 0 1 97.841 35.428L89.337 38.012A40.6 40.6 0 0 0 85.489 29.226M11.367 35.902L3.022 32.853A50 50 0 0 1 8.287 22.431L15.7 27.336A41 41 0 0 0 11.371 35.902zM78.279 20.157L84.387 13.706A50.2 50.2 0 0 1 91.872 22.658L84.436 27.523A41.5 41.5 0 0 0 78.279 20.157M9.685 20.432A50.3 50.3 0 0 1 17.636 11.888L23.392 18.659A41.4 41.4 0 0 0 16.847 25.689zM68.826 13.445V13.443L72.901 5.548A50.4 50.4 0 0 1 82.578 12.073L76.788 18.814A41 41 0 0 0 68.826 13.445M19.526 10.359A49.7 49.7 0 0 1 29.541 4.368L33.179 12.474A41 41 0 0 0 24.947 17.399zM57.886 9.643L59.58 0.918A49.8 49.8 0 0 1 70.708 4.481L67.02 12.567A40.6 40.6 0 0 0 57.886 9.643M35.025 11.698L31.794 3.424A50 50 0 0 1 43.091 0.48L44.313 9.282A40.8 40.8 0 0 0 35.025 11.702zM50.045 8.887C49.236 8.887 48.422 8.91 47.599 8.96 47.163 8.987 46.732 9.017 46.304 9.056L45.513 0.204A57 57 0 0 1 47.076 0.09 50 50 0 0 1 57.176 0.51L55.91 9.306A41 41 0 0 0 50.045 8.887" fill="#131313" data-fill-palette-color="quaternary"></path></g><g fill="#131313" data-fill-palette-color="quaternary"><path d="M41.904 87.635L43.766 78.947C45.773 79.378 47.859 79.603 50.004 79.603 50.927 79.603 51.84 79.562 52.736 79.479L53.545 88.326C52.379 88.436 51.197 88.492 50.004 88.492 47.228 88.492 44.519 88.195 41.904 87.635M54.652 79.242A29.4 29.4 0 0 0 63.194 76.512L67.161 84.462A38.1 38.1 0 0 1 56.033 88.02zM28.853 82.159L33.74 74.74A29.5 29.5 0 0 0 41.895 78.48L39.466 87.028A38.2 38.2 0 0 1 28.853 82.159M64.893 75.596A29.8 29.8 0 0 0 71.877 69.948L78.44 75.936A38.5 38.5 0 0 1 69.366 83.271zM18.665 72.35L25.9 67.184A29.6 29.6 0 0 0 32.165 73.624H32.162L26.801 80.71A38.6 38.6 0 0 1 18.665 72.35M73.134 68.478A29.5 29.5 0 0 0 77.614 60.7V60.703L85.9 63.916A38.5 38.5 0 0 1 80.071 74.029zM12.701 59.515L21.315 57.325A29.4 29.4 0 0 0 24.825 65.579H24.828L17.272 70.262A38.5 38.5 0 0 1 12.701 59.515M78.254 58.88A29.6 29.6 0 0 0 79.604 50.004H88.493A38.4 38.4 0 0 1 86.732 61.538zM11.517 50.003C11.517 48.448 11.61 46.915 11.789 45.404L20.613 46.456A30 30 0 0 0 20.405 50.003C20.405 51.863 20.574 53.679 20.902 55.44L12.166 57.062A38.3 38.3 0 0 1 11.517 50.003M77.621 39.32L85.91 36.111A38.4 38.4 0 0 1 88.414 47.515L79.543 48.081A29.4 29.4 0 0 0 77.621 39.32M12.168 42.925A38.3 38.3 0 0 1 16.03 31.901L23.869 36.088A29.2 29.2 0 0 0 20.904 44.55zM71.893 30.072L78.462 24.086A38.6 38.6 0 0 1 84.925 33.801L76.867 37.544A29.8 29.8 0 0 0 71.893 30.072M17.285 29.726A38.8 38.8 0 0 1 24.867 20.856L30.673 27.583A29.9 29.9 0 0 0 24.835 34.412zM63.214 23.502H63.212L67.182 15.552A38.4 38.4 0 0 1 76.71 22.291L70.545 28.686A29.6 29.6 0 0 0 63.214 23.502M26.818 19.281A38.4 38.4 0 0 1 37.09 13.736L40.073 22.107A29.5 29.5 0 0 0 32.175 26.369zM52.753 20.524L53.567 11.677A38.2 38.2 0 0 1 64.896 14.503L61.455 22.694A29.5 29.5 0 0 0 52.753 20.524M39.486 12.969A38.5 38.5 0 0 1 50.004 11.514C50.357 11.514 50.712 11.516 51.062 11.529L50.825 20.409A22 22 0 0 0 50.005 20.401C47.191 20.401 44.481 20.788 41.91 21.518z" fill="#131313" data-fill-palette-color="quaternary"></path></g><g fill="#131313" data-fill-palette-color="quaternary"><path d="M50.005 76.883H49.663L49.774 67.995C49.85 67.997 49.927 67.997 50.005 67.997A17.95 17.95 0 0 0 57.815 66.22L61.677 74.221A26.7 26.7 0 0 1 50.025 76.883zM35.414 72.58L40.242 65.123A17.9 17.9 0 0 0 47.992 67.887L47.014 76.716A26.7 26.7 0 0 1 35.414 72.58M59.379 65.367A18.1 18.1 0 0 0 65.246 59.571V59.574L72.765 64.306A26.9 26.9 0 0 1 64.013 72.947zM25.637 61.368L33.69 57.607A18.1 18.1 0 0 0 38.794 64.081L33.254 71.027A27 27 0 0 1 25.637 61.368M66.119 58.021A17.9 17.9 0 0 0 67.998 50.003C67.998 49.306 67.958 48.621 67.885 47.946L76.713 46.945C76.826 47.95 76.885 48.97 76.885 50.003 76.885 54.294 75.873 58.379 74.07 61.985zM23.123 50.002C23.123 48.876 23.193 47.763 23.328 46.67L32.147 47.763A18 18 0 0 0 32.01 50.002C32.01 52.101 32.366 54.097 33.017 55.96H33.018L24.631 58.903A26.9 26.9 0 0 1 23.123 50.002M64.058 38.762V38.759L70.991 33.204A26.8 26.8 0 0 1 76.284 44.323L67.598 46.193A17.94 17.94 0 0 0 64.058 38.762M23.785 44.049A26.8 26.8 0 0 1 29.193 32.986L36.068 38.614A17.9 17.9 0 0 0 32.453 46.011zM55.921 33.002L58.844 24.611A26.9 26.9 0 0 1 69.23 31.214L62.875 37.422A18.04 18.04 0 0 0 55.921 33.002M37.263 37.292L37.265 37.291 37.266 37.292zM30.974 31.015A26.9 26.9 0 0 1 41.426 24.521L44.262 32.942A18 18 0 0 0 37.265 37.291zM50.005 32.005A18.3 18.3 0 0 0 45.97 32.459L43.99 23.797A27 27 0 0 1 50.005 23.121C52.162 23.121 54.27 23.377 56.29 23.861L54.218 32.502A18.2 18.2 0 0 0 50.005 32.005" fill="#131313" data-fill-palette-color="quaternary"></path></g><g fill="#131313" data-fill-palette-color="quaternary"><path d="M45.401 65.105L47.99 56.6A6.9 6.9 0 0 0 50.004 56.898C51.314 56.898 52.506 56.542 53.542 55.924H53.545L58.114 63.542A15.74 15.74 0 0 1 50.004 65.785 15.9 15.9 0 0 1 45.401 65.105M34.682 53.803L43.309 51.668A6.92 6.92 0 0 0 46.748 56.086L42.546 63.916A15.8 15.8 0 0 1 34.682 53.803M54.63 55.118A6.85 6.85 0 0 0 56.901 50.002 8 8 0 0 0 56.87 49.339L65.716 48.502A15.77 15.77 0 0 1 60.594 61.706zM34.22 50.002A15.74 15.74 0 0 1 38.87 38.815L45.14 45.113A6.85 6.85 0 0 0 43.106 50.002C43.106 50.111 43.109 50.223 43.116 50.335L34.24 50.751C34.225 50.501 34.22 50.255 34.22 50.002M52.967 43.769L56.787 35.748A15.82 15.82 0 0 1 65.127 45.472L56.615 48.02A6.94 6.94 0 0 0 52.967 43.769M41.255 36.863A15.73 15.73 0 0 1 50.004 34.219C51.334 34.219 52.639 34.385 53.88 34.698L51.703 43.314A6.8 6.8 0 0 0 50.004 43.104 6.83 6.83 0 0 0 46.186 44.256zM52.965 43.768L52.967 43.769 52.965 43.771z" fill="#131313" data-fill-palette-color="quaternary"></path></g></g></svg></g></svg></g><g id="text-0"><path d="M29.166 110.578l-26.205-9.748 8.718-23.435 4.661 1.734-6.74 18.119 6.86 2.552 5.723-15.386 4.371 1.626-5.724 15.386 10.314 3.836z" fill="#f4dcfe" data-fill-palette-color="primary"></path><path d="M37.301 63.91v0c-1.528-1.456-2.659-3.067-3.394-4.834-0.735-1.776-1.076-3.604-1.022-5.484 0.058-1.885 0.511-3.775 1.36-5.669 0.853-1.899 2.102-3.712 3.746-5.437v0c1.639-1.721 3.389-3.055 5.25-4.005 1.856-0.944 3.724-1.491 5.603-1.64 1.875-0.144 3.718 0.108 5.528 0.757 1.8 0.649 3.464 1.701 4.992 3.156v0c1.537 1.465 2.681 3.088 3.43 4.868 0.745 1.785 1.098 3.625 1.058 5.519-0.048 1.894-0.492 3.798-1.331 5.711-0.848 1.913-2.092 3.73-3.731 5.451v0c-1.644 1.725-3.399 3.056-5.264 3.99-1.866 0.926-3.743 1.458-5.633 1.598-1.89 0.13-3.744-0.133-5.564-0.79-1.815-0.662-3.491-1.726-5.028-3.191zM41.214 59.804v0c1.046 0.996 2.165 1.704 3.356 2.122 1.197 0.423 2.408 0.584 3.635 0.484 1.231-0.105 2.44-0.462 3.626-1.069 1.186-0.608 2.289-1.447 3.308-2.517v0c1.024-1.075 1.811-2.219 2.361-3.433 0.55-1.214 0.843-2.434 0.879-3.659 0.041-1.23-0.177-2.435-0.652-3.614-0.471-1.175-1.229-2.261-2.276-3.258v0c-1.046-0.996-2.165-1.699-3.356-2.108-1.192-0.409-2.391-0.554-3.599-0.436-1.203 0.114-2.39 0.482-3.561 1.104-1.167 0.626-2.262 1.477-3.286 2.551v0c-1.019 1.07-1.814 2.203-2.383 3.398-0.564 1.2-0.879 2.408-0.943 3.625-0.06 1.212 0.145 2.4 0.616 3.566 0.471 1.166 1.229 2.247 2.275 3.244z" fill="#f4dcfe" data-fill-palette-color="primary"></path><path d="M93.7 37.574l-9.073-21.12-9.477 4.071-1.963-4.569 24.176-10.385 1.962 4.569-9.486 4.075 9.072 21.121z" fill="#f4dcfe" data-fill-palette-color="primary"></path><path d="M125.223 24.673l2.992-4.609c1.021 0.567 2.053 1.078 3.093 1.532 1.047 0.454 2.135 0.834 3.261 1.141 1.12 0.314 2.296 0.551 3.529 0.711 1.239 0.16 2.554 0.237 3.945 0.23v0c1.684-0.009 3.115-0.126 4.292-0.352 1.184-0.226 2.147-0.534 2.891-0.923 0.744-0.397 1.284-0.862 1.621-1.397 0.337-0.541 0.503-1.128 0.5-1.76v0c-0.005-1.012-0.432-1.812-1.28-2.4-0.855-0.588-2.165-0.878-3.929-0.868v0c-0.772 0.004-1.587 0.061-2.446 0.172-0.858 0.104-1.726 0.219-2.604 0.343-0.871 0.124-1.736 0.239-2.595 0.343-0.852 0.104-1.653 0.158-2.405 0.162v0c-1.251 0.006-2.451-0.147-3.598-0.461-1.153-0.32-2.178-0.798-3.073-1.432-0.889-0.641-1.598-1.443-2.129-2.406-0.531-0.963-0.8-2.09-0.806-3.381v0c-0.004-0.759 0.095-1.515 0.298-2.268 0.209-0.753 0.542-1.474 0.997-2.162 0.456-0.688 1.045-1.33 1.768-1.926 0.723-0.59 1.599-1.103 2.628-1.541 1.03-0.431 2.223-0.774 3.58-1.027 1.35-0.253 2.891-0.384 4.621-0.394v0c1.251-0.006 2.51 0.057 3.775 0.191 1.259 0.127 2.491 0.313 3.698 0.56 1.2 0.247 2.353 0.54 3.46 0.881 1.114 0.347 2.147 0.735 3.101 1.162v0l-2.463 4.586c-0.787-0.342-1.634-0.654-2.541-0.935-0.907-0.288-1.857-0.54-2.85-0.755-0.993-0.208-2.016-0.372-3.068-0.493-1.059-0.114-2.138-0.169-3.236-0.163v0c-1.558 0.008-2.842 0.128-3.853 0.359-1.004 0.231-1.805 0.522-2.402 0.871-0.591 0.356-1.001 0.754-1.232 1.195-0.231 0.434-0.345 0.867-0.343 1.3v0c0.004 0.832 0.384 1.512 1.139 2.041 0.755 0.522 1.901 0.779 3.439 0.771v0c0.619-0.003 1.331-0.05 2.137-0.141 0.805-0.091 1.65-0.195 2.534-0.312 0.891-0.111 1.796-0.212 2.715-0.304 0.925-0.098 1.823-0.149 2.695-0.153v0c1.644-0.008 3.103 0.17 4.376 0.536 1.273 0.366 2.341 0.89 3.204 1.571 0.862 0.681 1.516 1.507 1.96 2.477 0.444 0.97 0.67 2.054 0.676 3.252v0c0.008 1.611-0.357 3.047-1.097 4.309-0.739 1.262-1.795 2.329-3.169 3.202-1.367 0.872-3.021 1.537-4.962 1.992-1.942 0.456-4.107 0.69-6.497 0.703v0c-1.571 0.008-3.109-0.081-4.615-0.266-1.505-0.192-2.948-0.464-4.328-0.817-1.373-0.359-2.687-0.788-3.941-1.288-1.247-0.5-2.402-1.053-3.463-1.659z" fill="#f4dcfe" data-fill-palette-color="primary"></path><path d="M183.334 36.67l8.918-21.185-9.507-4.003 1.929-4.583 24.251 10.209-1.929 4.583-9.517-4.006-8.918 21.186z" fill="#f4dcfe" data-fill-palette-color="primary"></path><path d="M210.507 51.652l29.215-10.03 4.177 4.309-10.66 29.175-4.149-4.281 1.82-4.879-11.362-11.723-4.885 1.717zM224.405 52.519l8.304 8.568 4.916-13.177z" fill="#f4dcfe" data-fill-palette-color="primary"></path><path d="M245.079 97.873l21.223-8.831-3.963-9.523 4.591-1.911 10.109 24.292-4.591 1.911-3.967-9.533-21.222 8.832z" fill="#f4dcfe" data-fill-palette-color="primary"></path><path d="M10.517 143.336c0-1.794 1.454-3.248 3.247-3.247 1.794 0 3.248 1.454 3.248 3.247 0 1.794-1.454 3.248-3.248 3.248-1.794 0-3.248-1.454-3.247-3.248z" fill="#f4dcfe" data-fill-palette-color="primary"></path><path d="M262.154 143.336c0-1.794 1.454-3.248 3.248-3.247 1.794 0 3.248 1.454 3.247 3.247 0 1.794-1.454 3.248-3.247 3.248-1.794 0-3.248-1.454-3.248-3.248z" fill="#f4dcfe" data-fill-palette-color="primary"></path></g><g id="text-1"><path d="M9.259 183.568l26.547-9.916 8.868 23.741-4.724 1.764-6.855-18.353-6.941 2.593 5.825 15.593-4.434 1.657-5.825-15.594-10.448 3.903z" fill="#f4dcfe" data-fill-palette-color="primary"></path><path d="M42.357 217.841v0c1.551-1.48 3.237-2.547 5.06-3.202 1.828-0.659 3.694-0.917 5.598-0.774 1.908 0.148 3.8 0.698 5.675 1.651 1.88 0.957 3.654 2.31 5.323 4.058v0c1.664 1.743 2.93 3.576 3.799 5.498 0.873 1.927 1.337 3.845 1.392 5.753 0.059 1.913-0.283 3.767-1.027 5.563-0.738 1.791-1.883 3.426-3.433 4.906v0c-1.555 1.485-3.254 2.563-5.097 3.236-1.838 0.668-3.718 0.935-5.641 0.802-1.913-0.134-3.819-0.675-5.718-1.624-1.894-0.943-3.674-2.287-5.337-4.029v0c-1.669-1.748-2.93-3.59-3.785-5.527-0.85-1.931-1.299-3.858-1.348-5.78-0.04-1.922 0.316-3.785 1.069-5.59 0.758-1.809 1.914-3.456 3.47-4.941zM46.328 222.002v0c-1.059 1.011-1.831 2.112-2.316 3.301-0.484 1.189-0.703 2.406-0.657 3.65 0.046 1.254 0.349 2.497 0.909 3.729 0.555 1.228 1.35 2.383 2.385 3.467v0c1.034 1.083 2.154 1.933 3.359 2.55 1.205 0.617 2.428 0.972 3.669 1.067 1.241 0.104 2.469-0.056 3.684-0.48 1.215-0.424 2.353-1.141 3.411-2.152v0c1.059-1.011 1.824-2.109 2.295-3.295 0.47-1.185 0.675-2.393 0.614-3.623-0.056-1.226-0.372-2.448-0.946-3.666-0.579-1.214-1.386-2.363-2.42-3.446v0c-1.034-1.083-2.142-1.94-3.324-2.571-1.191-0.63-2.401-1.007-3.632-1.129-1.226-0.118-2.44 0.033-3.641 0.452-1.201 0.419-2.331 1.135-3.39 2.146z" fill="#f4dcfe" data-fill-palette-color="primary"></path><path d="M85.36 268.644l9.185-21.409-9.608-4.122 1.988-4.634 24.511 10.516-1.988 4.634-9.617-4.126-9.185 21.409z" fill="#f4dcfe" data-fill-palette-color="primary"></path><path d="M124.957 275.74l3.09-4.638c1.022 0.584 2.061 1.112 3.117 1.584 1.056 0.471 2.149 0.87 3.279 1.196 1.137 0.325 2.33 0.575 3.581 0.747 1.251 0.18 2.582 0.273 3.993 0.281v0c1.704 0.009 3.156-0.097 4.355-0.317 1.199-0.213 2.176-0.515 2.93-0.904 0.761-0.389 1.316-0.855 1.665-1.399 0.342-0.544 0.515-1.136 0.519-1.775v0c0.005-1.025-0.42-1.84-1.276-2.443-0.849-0.604-2.169-0.91-3.959-0.919v0c-0.786-0.004-1.615 0.042-2.487 0.137-0.873 0.102-1.752 0.211-2.638 0.326-0.893 0.115-1.769 0.22-2.628 0.315-0.866 0.102-1.682 0.151-2.447 0.147v0c-1.265-0.007-2.479-0.176-3.642-0.508-1.17-0.332-2.203-0.827-3.098-1.484-0.895-0.657-1.607-1.476-2.134-2.457-0.527-0.981-0.788-2.128-0.781-3.439v0c0.004-0.772 0.114-1.537 0.331-2.295 0.217-0.764 0.557-1.492 1.02-2.182 0.47-0.69 1.075-1.332 1.817-1.928 0.742-0.595 1.637-1.11 2.685-1.543 1.047-0.427 2.257-0.76 3.63-1 1.373-0.239 2.934-0.354 4.685-0.345v0c1.271 0.007 2.549 0.083 3.833 0.229 1.277 0.14 2.521 0.343 3.731 0.609 1.217 0.259 2.387 0.568 3.51 0.927 1.123 0.365 2.166 0.767 3.13 1.204v0l-2.541 4.63c-0.797-0.357-1.654-0.684-2.571-0.982-0.917-0.304-1.878-0.566-2.882-0.783-1.004-0.225-2.038-0.403-3.102-0.536-1.071-0.132-2.162-0.201-3.275-0.207v0c-1.584-0.008-2.886 0.098-3.906 0.32-1.026 0.228-1.843 0.516-2.451 0.866-0.601 0.356-1.022 0.754-1.264 1.191-0.235 0.445-0.354 0.884-0.356 1.317v0c-0.004 0.845 0.371 1.54 1.127 2.083 0.763 0.543 1.923 0.819 3.481 0.826v0c0.626 0.003 1.348-0.04 2.167-0.128 0.813-0.089 1.672-0.184 2.578-0.286 0.899-0.102 1.818-0.197 2.758-0.286 0.932-0.088 1.841-0.13 2.726-0.125v0c1.664 0.009 3.141 0.206 4.431 0.592 1.283 0.379 2.358 0.918 3.227 1.614 0.868 0.703 1.523 1.549 1.964 2.537 0.441 0.988 0.658 2.09 0.652 3.309v0c-0.008 1.631-0.392 3.083-1.151 4.357-0.765 1.268-1.849 2.337-3.252 3.209-1.396 0.871-3.08 1.528-5.053 1.971-1.973 0.442-4.167 0.657-6.584 0.644v0c-1.598-0.008-3.158-0.116-4.682-0.323-1.523-0.208-2.98-0.498-4.369-0.872-1.396-0.38-2.725-0.83-3.987-1.349-1.262-0.519-2.427-1.091-3.496-1.715z" fill="#f4dcfe" data-fill-palette-color="primary"></path><path d="M191.504 269.619l-9.028-21.476-9.637 4.051-1.954-4.649 24.587-10.335 1.954 4.649-9.647 4.055 9.027 21.476z" fill="#f4dcfe" data-fill-palette-color="primary"></path><path d="M225.498 250.048l-11.056-29.292 4.244-4.369 29.881 9.908-4.209 4.333-5.004-1.699-11.534 11.877 1.901 4.894zM225.962 235.939l8.425-8.674-13.512-4.576z" fill="#f4dcfe" data-fill-palette-color="primary"></path><path d="M264.597 197.204l-21.491-8.99-4.035 9.645-4.652-1.946 10.293-24.605 4.652 1.946-4.039 9.654 21.492 8.99z" fill="#f4dcfe" data-fill-palette-color="primary"></path></g></svg></g></svg></g></svg></g><g></g></svg></g><defs></defs></svg><rect width="280" height="280" fill="none" stroke="none" visibility="hidden"></rect></g></svg></g></svg>